<svg xmlns="http://www.w3.org/2000/svg" width="32" height="32" viewBox="0 0 32 32">
  <defs>
    <linearGradient id="grad1" x1="0%" y1="0%" x2="100%" y2="100%">
      <stop offset="0%" style="stop-color:#4F46E5;stop-opacity:1" />
      <stop offset="100%" style="stop-color:#10B981;stop-opacity:1" />
    </linearGradient>
  </defs>
  
  <!-- Calculator Body -->
  <rect x="4" y="4" width="24" height="24" rx="4" ry="4" fill="url(#grad1)" />
  
  <!-- Screen -->
  <rect x="6" y="6" width="20" height="6" rx="1" ry="1" fill="white" opacity="0.9" />
  
  <!-- Display Text -->
  <text x="16" y="10.5" font-family="Arial, sans-serif" font-size="3" text-anchor="middle" fill="#4F46E5" font-weight="bold">SIP</text>
  
  <!-- Calculator Buttons -->
  <circle cx="9" cy="16" r="1.5" fill="white" opacity="0.8" />
  <circle cx="13" cy="16" r="1.5" fill="white" opacity="0.8" />
  <circle cx="17" cy="16" r="1.5" fill="white" opacity="0.8" />
  <circle cx="21" cy="16" r="1.5" fill="white" opacity="0.8" />
  
  <circle cx="9" cy="20" r="1.5" fill="white" opacity="0.8" />
  <circle cx="13" cy="20" r="1.5" fill="white" opacity="0.8" />
  <circle cx="17" cy="20" r="1.5" fill="white" opacity="0.8" />
  <circle cx="21" cy="20" r="1.5" fill="white" opacity="0.8" />
  
  <circle cx="9" cy="24" r="1.5" fill="white" opacity="0.8" />
  <circle cx="13" cy="24" r="1.5" fill="white" opacity="0.8" />
  <rect x="16" y="22" width="6" height="3" rx="1.5" ry="1.5" fill="white" opacity="0.9" />
  
  <!-- Growth Arrow -->
  <path d="M23 14 L25 12 L27 14 M25 12 L25 18" stroke="white" stroke-width="1.5" fill="none" opacity="0.7" />
</svg>